<svg width="20" height="20" viewBox="0 0 20 20" fill="none" xmlns="http://www.w3.org/2000/svg">
<path fill-rule="evenodd" clip-rule="evenodd" d="M5.71738 0.831543H14.2781C17.3957 0.831543 19.1557 2.59979 19.1649 5.71738V14.279C19.1649 17.3957 17.3957 19.1649 14.2781 19.1649H5.71738C2.59979 19.1649 0.831543 17.3957 0.831543 14.279V5.71738C0.831543 2.59979 2.59979 0.831543 5.71738 0.831543ZM10.0444 15.3695C10.4394 15.3695 10.7685 15.0761 10.8052 14.682V5.34114C10.8419 5.05697 10.7053 4.77189 10.4578 4.61697C10.2002 4.46114 9.88852 4.46114 9.64194 4.61697C9.39352 4.77189 9.25694 5.05697 9.28352 5.34114V14.682C9.33027 15.0761 9.65935 15.3695 10.0444 15.3695ZM14.2607 15.3678C14.6457 15.3678 14.9748 15.0745 15.0215 14.6803V11.6737C15.0481 11.3794 14.9115 11.1053 14.6631 10.9495C14.4165 10.7937 14.1049 10.7937 13.8482 10.9495C13.5998 11.1053 13.4632 11.3794 13.4999 11.6737V14.6803C13.5366 15.0745 13.8656 15.3678 14.2607 15.3678ZM6.53189 14.683C6.49523 15.0772 6.16614 15.3705 5.77106 15.3705C5.37689 15.3705 5.04689 15.0772 5.01114 14.683V8.34882C4.98364 8.06374 5.12022 7.78049 5.36864 7.62466C5.61522 7.46882 5.92781 7.46882 6.17531 7.62466C6.42189 7.78049 6.56031 8.06374 6.53189 8.34882V14.683Z" fill="#2D26E1"/>
</svg>
