<svg width="20" height="20" viewBox="0 0 20 20" fill="none" xmlns="http://www.w3.org/2000/svg">
<path fill-rule="evenodd" clip-rule="evenodd" d="M14.2764 0.842726C15.5951 0.760311 16.8954 1.21817 17.8752 2.11558C18.7727 3.0954 19.2305 4.39572 19.1573 5.72351V14.2763C19.2397 15.6041 18.7727 16.9044 17.8844 17.8843C16.9046 18.7817 15.5951 19.2395 14.2764 19.1571H5.72355C4.39575 19.2395 3.09541 18.7817 2.11559 17.8843C1.21817 16.9044 0.760311 15.6041 0.842726 14.2763V5.72351C0.760311 4.39572 1.21817 3.0954 2.11559 2.11558C3.09541 1.21817 4.39575 0.760311 5.72355 0.842726H14.2764ZM9.06596 14.4412L15.2288 8.26005C15.7874 7.69231 15.7874 6.77659 15.2288 6.218L14.0384 5.02756C13.4706 4.45982 12.5549 4.45982 11.9871 5.02756L11.3736 5.65025C11.282 5.74182 11.282 5.8975 11.3736 5.98907C11.3736 5.98907 12.8296 7.43591 12.8571 7.47253C12.9578 7.58242 13.0219 7.72894 13.0219 7.89377C13.0219 8.22342 12.7563 8.49814 12.4175 8.49814C12.2618 8.49814 12.1153 8.43404 12.0146 8.33331L10.4853 6.81322C10.4121 6.73996 10.2839 6.73996 10.2106 6.81322L5.8426 11.1812C5.54041 11.4834 5.36642 11.8863 5.35727 12.3167L5.30232 14.4869C5.30232 14.606 5.33895 14.7159 5.42137 14.7983C5.50378 14.8807 5.61367 14.9265 5.73271 14.9265H7.88467C8.32422 14.9265 8.74545 14.7525 9.06596 14.4412Z" fill="#2D26E1"/>
</svg>
