<svg width="18" height="16" viewBox="0 0 18 16" fill="none" xmlns="http://www.w3.org/2000/svg">
<path fill-rule="evenodd" clip-rule="evenodd" d="M12.925 6.39348C12.925 6.80968 13.2583 7.14265 13.675 7.14265C14.0917 7.14265 14.4333 6.80968 14.4333 6.39348C14.4333 5.97727 14.0917 5.63599 13.675 5.63599C13.2583 5.63599 12.925 5.97727 12.925 6.39348ZM11.3083 11.4212C10.7167 12.0122 9.9 12.3785 9 12.3785C8.125 12.3785 7.30834 12.0372 6.68334 11.4212C6.06667 10.7969 5.725 9.98116 5.725 9.10713C5.71667 8.24142 6.05834 7.42566 6.675 6.80136C7.3 6.17705 8.125 5.83576 9 5.83576C9.875 5.83576 10.7 6.17705 11.3167 6.79303C11.9333 7.41734 12.275 8.24142 12.275 9.10713C12.2667 10.0145 11.9 10.8302 11.3083 11.4212ZM9 7.08438C8.45834 7.08438 7.95 7.29248 7.55834 7.68372C7.175 8.06662 6.96667 8.57439 6.975 9.09881V9.10713C6.975 9.6482 7.18334 10.156 7.56667 10.5389C7.95 10.9218 8.45834 11.1299 9 11.1299C10.1167 11.1299 11.0167 10.2226 11.025 9.10713C11.025 8.56607 10.8167 8.0583 10.4333 7.67539C10.05 7.29248 9.54167 7.08438 9 7.08438Z" fill="#2596D7"/>
<path opacity="0.4" d="M13.5334 3.197L13.45 3.01387C13.225 2.5394 12.9667 1.99001 12.8084 1.6737C12.425 0.924528 11.7667 0.508324 10.9584 0.5H7.03335C6.22502 0.508324 5.57502 0.924528 5.19169 1.6737C5.02502 2.00666 4.74169 2.60599 4.50835 3.09711L4.45835 3.197C4.43335 3.2636 4.36669 3.29689 4.30002 3.29689C2.29169 3.29689 0.666687 4.92841 0.666687 6.92619V11.8707C0.666687 13.8685 2.29169 15.5 4.30002 15.5H13.7C15.7 15.5 17.3334 13.8685 17.3334 11.8707V6.92619C17.3334 4.92841 15.7 3.29689 13.7 3.29689C13.625 3.29689 13.5667 3.25527 13.5334 3.197Z" fill="#2596D7"/>
</svg>
