<svg width="20" height="20" viewBox="0 0 20 20" fill="none" xmlns="http://www.w3.org/2000/svg">
<g id="Iconly/Bulk/Paper Plus">
<g id="Paper Plus">
<path id="Fill 3" opacity="0.4" d="M15.6738 7.51749C15.2976 7.51749 14.7992 7.50916 14.1787 7.50916C12.6654 7.50916 11.4211 6.25666 11.4211 4.72916V2.04916C11.4211 1.83832 11.252 1.66666 11.044 1.66666H6.63619C4.57914 1.66666 2.9165 3.35499 2.9165 5.42416V14.4033C2.9165 16.5742 4.65835 18.3333 6.80782 18.3333H13.3709C15.4214 18.3333 17.0832 16.6558 17.0832 14.585V7.89249C17.0832 7.68082 16.9148 7.50999 16.7053 7.51082C16.3538 7.51332 15.9305 7.51749 15.6738 7.51749Z" fill="#2D26E1"/>
<path id="Fill 1" opacity="0.4" d="M13.4034 2.13941C13.1542 1.88025 12.7192 2.05858 12.7192 2.41775V4.61525C12.7192 5.53691 13.4784 6.29525 14.3992 6.29525C14.9809 6.30191 15.7876 6.30358 16.4726 6.30191C16.8234 6.30108 17.0017 5.88191 16.7584 5.62858C15.8792 4.71441 14.3051 3.07608 13.4034 2.13941Z" fill="#2D26E1"/>
<path id="Fill 6" d="M11.9724 10.1969H10.5324V8.75774C10.5324 8.41524 10.2549 8.1369 9.91242 8.1369C9.56992 8.1369 9.29159 8.41524 9.29159 8.75774V10.1969H7.85242C7.50992 10.1969 7.23242 10.4752 7.23242 10.8177C7.23242 11.1602 7.50992 11.4386 7.85242 11.4386H9.29159V12.8769C9.29159 13.2194 9.56992 13.4977 9.91242 13.4977C10.2549 13.4977 10.5324 13.2194 10.5324 12.8769V11.4386H11.9724C12.3149 11.4386 12.5933 11.1602 12.5933 10.8177C12.5933 10.4752 12.3149 10.1969 11.9724 10.1969Z" fill="#2D26E1"/>
</g>
</g>
</svg>
