<svg width="22" height="16" viewBox="0 0 22 16" fill="none" xmlns="http://www.w3.org/2000/svg">
<path fill-rule="evenodd" clip-rule="evenodd" d="M14.8119 4.54686C14.8119 6.70074 13.0948 8.4278 10.9534 8.4278C8.81193 8.4278 7.09484 6.70074 7.09484 4.54686C7.09484 2.39216 8.81193 0.666748 10.9534 0.666748C13.0948 0.666748 14.8119 2.39216 14.8119 4.54686ZM10.9534 15.3334C7.8081 15.3334 5.12249 14.8348 5.12249 12.8402C5.12249 10.8449 7.79087 10.3281 10.9534 10.3281C14.0986 10.3281 16.7842 10.8267 16.7842 12.8221C16.7842 14.8166 14.1158 15.3334 10.9534 15.3334ZM16.4608 4.61688C16.4608 5.71487 16.1333 6.73773 15.5587 7.58805C15.4996 7.67556 15.5521 7.79362 15.6564 7.81178C15.8 7.83655 15.9486 7.85058 16.0996 7.85471C17.6057 7.89433 18.9576 6.91935 19.331 5.45151C19.8843 3.27122 18.2599 1.31383 16.1915 1.31383C15.9666 1.31383 15.7516 1.33777 15.5423 1.3807C15.5136 1.3873 15.4832 1.40051 15.4668 1.4261C15.4471 1.45747 15.4619 1.49958 15.4816 1.52682C16.1029 2.40273 16.4608 3.471 16.4608 4.61688ZM18.9551 9.38661C19.9672 9.58557 20.6328 9.99174 20.9086 10.582C21.1417 11.0666 21.1417 11.6288 20.9086 12.1126C20.4867 13.0281 19.1267 13.322 18.5981 13.398C18.4889 13.4145 18.4011 13.3196 18.4126 13.2098C18.6826 10.6728 16.5346 9.46999 15.979 9.19343C15.9552 9.18105 15.9502 9.16206 15.9527 9.1505C15.9543 9.14225 15.9642 9.12904 15.9822 9.12656C17.1847 9.10427 18.4774 9.26938 18.9551 9.38661ZM5.90076 7.85462C6.05178 7.85049 6.19952 7.83728 6.34398 7.81169C6.44822 7.79353 6.50075 7.67547 6.44166 7.58796C5.86711 6.73764 5.53961 5.71478 5.53961 4.61679C5.53961 3.47091 5.89747 2.40264 6.51881 1.52673C6.53851 1.49949 6.55246 1.45738 6.53358 1.42601C6.51717 1.40125 6.48598 1.38721 6.45807 1.38061C6.24795 1.33768 6.0329 1.31374 5.80801 1.31374C3.73963 1.31374 2.11529 3.27113 2.66932 5.45142C3.04278 6.91926 4.39462 7.89425 5.90076 7.85462ZM6.04728 9.15C6.04974 9.16238 6.04481 9.18054 6.02183 9.19375C5.46534 9.47031 3.31734 10.6731 3.58738 13.2093C3.59887 13.3199 3.51187 13.414 3.4027 13.3983C2.87412 13.3224 1.51407 13.0285 1.09219 12.1129C0.858267 11.6283 0.858267 11.0669 1.09219 10.5823C1.36798 9.99206 2.03281 9.58589 3.04484 9.3861C3.52336 9.2697 4.81528 9.10459 6.01855 9.12688C6.03661 9.12936 6.04563 9.14257 6.04728 9.15Z" fill="#2D26E1"/>
</svg>
